<svg width="533" height="54" viewBox="0 0 533 54" fill="none" xmlns="http://www.w3.org/2000/svg">
<path d="M9.77022 17.606H4.76622L3.93822 20H1.29222L5.81022 7.418H8.74422L13.2622 20H10.5982L9.77022 17.606ZM9.08622 15.59L7.26822 10.334L5.45022 15.59H9.08622ZM21.431 20L18.659 15.104H17.471V20H14.951V7.436H19.667C20.639 7.436 21.467 7.61 22.151 7.958C22.835 8.294 23.345 8.756 23.681 9.344C24.029 9.92 24.203 10.568 24.203 11.288C24.203 12.116 23.963 12.866 23.483 13.538C23.003 14.198 22.289 14.654 21.341 14.906L24.347 20H21.431ZM17.471 13.214H19.577C20.261 13.214 20.771 13.052 21.107 12.728C21.443 12.392 21.611 11.93 21.611 11.342C21.611 10.766 21.443 10.322 21.107 10.01C20.771 9.686 20.261 9.524 19.577 9.524H17.471V13.214ZM35.0322 7.436V9.47H31.6842V20H29.1642V9.47H25.8162V7.436H35.0322ZM39.3909 7.436V20H36.8709V7.436H39.3909ZM46.2187 20.126C45.3427 20.126 44.5507 19.976 43.8427 19.676C43.1467 19.376 42.5947 18.944 42.1867 18.38C41.7787 17.816 41.5687 17.15 41.5567 16.382H44.2567C44.2927 16.898 44.4727 17.306 44.7967 17.606C45.1327 17.906 45.5887 18.056 46.1647 18.056C46.7527 18.056 47.2147 17.918 47.5507 17.642C47.8867 17.354 48.0547 16.982 48.0547 16.526C48.0547 16.154 47.9407 15.848 47.7127 15.608C47.4847 15.368 47.1967 15.182 46.8487 15.05C46.5127 14.906 46.0447 14.75 45.4447 14.582C44.6287 14.342 43.9627 14.108 43.4467 13.88C42.9427 13.64 42.5047 13.286 42.1327 12.818C41.7727 12.338 41.5927 11.702 41.5927 10.91C41.5927 10.166 41.7787 9.518 42.1507 8.966C42.5227 8.414 43.0447 7.994 43.7167 7.706C44.3887 7.406 45.1567 7.256 46.0207 7.256C47.3167 7.256 48.3667 7.574 49.1707 8.21C49.9867 8.834 50.4367 9.71 50.5207 10.838H47.7487C47.7247 10.406 47.5387 10.052 47.1907 9.776C46.8547 9.488 46.4047 9.344 45.8407 9.344C45.3487 9.344 44.9527 9.47 44.6527 9.722C44.3647 9.974 44.2207 10.34 44.2207 10.82C44.2207 11.156 44.3287 11.438 44.5447 11.666C44.7727 11.882 45.0487 12.062 45.3727 12.206C45.7087 12.338 46.1767 12.494 46.7767 12.674C47.5927 12.914 48.2587 13.154 48.7747 13.394C49.2907 13.634 49.7347 13.994 50.1067 14.474C50.4787 14.954 50.6647 15.584 50.6647 16.364C50.6647 17.036 50.4907 17.66 50.1427 18.236C49.7947 18.812 49.2847 19.274 48.6127 19.622C47.9407 19.958 47.1427 20.126 46.2187 20.126ZM61.3994 7.436V9.47H58.0514V20H55.5314V9.47H52.1834V7.436H61.3994ZM81.2252 7.436V20H78.7052V11.828L75.3392 20H73.4312L70.0472 11.828V20H67.5272V7.436H70.3892L74.3852 16.778L78.3812 7.436H81.2252ZM91.4206 17.606H86.4166L85.5886 20H82.9426L87.4606 7.418H90.3946L94.9126 20H92.2486L91.4206 17.606ZM90.7366 15.59L88.9186 10.334L87.1006 15.59H90.7366ZM107.347 20H104.827L99.1214 11.378V20H96.6014V7.418H99.1214L104.827 16.058V7.418H107.347V20ZM117.542 17.606H112.538L111.71 20H109.064L113.582 7.418H116.516L121.034 20H118.37L117.542 17.606ZM116.858 15.59L115.04 10.334L113.222 15.59H116.858ZM131.47 11.216C131.182 10.688 130.786 10.286 130.282 10.01C129.778 9.734 129.19 9.596 128.518 9.596C127.774 9.596 127.114 9.764 126.538 10.1C125.962 10.436 125.512 10.916 125.188 11.54C124.864 12.164 124.702 12.884 124.702 13.7C124.702 14.54 124.864 15.272 125.188 15.896C125.524 16.52 125.986 17 126.574 17.336C127.162 17.672 127.846 17.84 128.626 17.84C129.586 17.84 130.372 17.588 130.984 17.084C131.596 16.568 131.998 15.854 132.19 14.942H127.87V13.016H134.674V15.212C134.506 16.088 134.146 16.898 133.594 17.642C133.042 18.386 132.328 18.986 131.452 19.442C130.588 19.886 129.616 20.108 128.536 20.108C127.324 20.108 126.226 19.838 125.242 19.298C124.27 18.746 123.502 17.984 122.938 17.012C122.386 16.04 122.11 14.936 122.11 13.7C122.11 12.464 122.386 11.36 122.938 10.388C123.502 9.404 124.27 8.642 125.242 8.102C126.226 7.55 127.318 7.274 128.518 7.274C129.934 7.274 131.164 7.622 132.208 8.318C133.252 9.002 133.972 9.968 134.368 11.216H131.47ZM139.059 9.47V12.62H143.289V14.618H139.059V17.948H143.829V20H136.539V7.418H143.829V9.47H139.059ZM159.817 7.436V20H157.297V11.828L153.931 20H152.023L148.639 11.828V20H146.119V7.436H148.981L152.977 16.778L156.973 7.436H159.817ZM164.828 9.47V12.62H169.058V14.618H164.828V17.948H169.598V20H162.308V7.418H169.598V9.47H164.828ZM182.634 20H180.114L174.408 11.378V20H171.888V7.418H174.408L180.114 16.058V7.418H182.634V20ZM193.675 7.436V9.47H190.327V20H187.807V9.47H184.459V7.436H193.675ZM196.629 20.126C196.173 20.126 195.795 19.988 195.495 19.712C195.207 19.424 195.063 19.07 195.063 18.65C195.063 18.23 195.207 17.882 195.495 17.606C195.795 17.318 196.173 17.174 196.629 17.174C197.073 17.174 197.439 17.318 197.727 17.606C198.015 17.882 198.159 18.23 198.159 18.65C198.159 19.07 198.015 19.424 197.727 19.712C197.439 19.988 197.073 20.126 196.629 20.126ZM196.629 12.674C196.173 12.674 195.795 12.536 195.495 12.26C195.207 11.972 195.063 11.618 195.063 11.198C195.063 10.778 195.207 10.43 195.495 10.154C195.795 9.866 196.173 9.722 196.629 9.722C197.073 9.722 197.439 9.866 197.727 10.154C198.015 10.43 198.159 10.778 198.159 11.198C198.159 11.618 198.015 11.972 197.727 12.26C197.439 12.536 197.073 12.674 196.629 12.674ZM146.108 36.47V39.62H150.338V41.618H146.108V44.948H150.878V47H143.588V34.418H150.878V36.47H146.108ZM166.866 34.436V47H164.346V38.828L160.98 47H159.072L155.688 38.828V47H153.168V34.436H156.03L160.026 43.778L164.022 34.436H166.866ZM177.061 44.606H172.057L171.229 47H168.583L173.101 34.418H176.035L180.553 47H177.889L177.061 44.606ZM176.377 42.59L174.559 37.334L172.741 42.59H176.377ZM184.762 34.436V47H182.242V34.436H184.762ZM189.772 45.002H193.912V47H187.252V34.436H189.772V45.002ZM196.629 47.126C196.173 47.126 195.795 46.988 195.495 46.712C195.207 46.424 195.063 46.07 195.063 45.65C195.063 45.23 195.207 44.882 195.495 44.606C195.795 44.318 196.173 44.174 196.629 44.174C197.073 44.174 197.439 44.318 197.727 44.606C198.015 44.882 198.159 45.23 198.159 45.65C198.159 46.07 198.015 46.424 197.727 46.712C197.439 46.988 197.073 47.126 196.629 47.126ZM196.629 39.674C196.173 39.674 195.795 39.536 195.495 39.26C195.207 38.972 195.063 38.618 195.063 38.198C195.063 37.778 195.207 37.43 195.495 37.154C195.795 36.866 196.173 36.722 196.629 36.722C197.073 36.722 197.439 36.866 197.727 37.154C198.015 37.43 198.159 37.778 198.159 38.198C198.159 38.618 198.015 38.972 197.727 39.26C197.439 39.536 197.073 39.674 196.629 39.674Z" fill="white"/>
<path d="M236.704 7.454V16.724C236.704 17.756 236.386 18.584 235.75 19.208C235.114 19.82 234.274 20.126 233.23 20.126C232.174 20.126 231.328 19.814 230.692 19.19C230.056 18.554 229.738 17.69 229.738 16.598H231.376C231.388 17.21 231.544 17.708 231.844 18.092C232.156 18.476 232.618 18.668 233.23 18.668C233.842 18.668 234.298 18.488 234.598 18.128C234.898 17.756 235.048 17.288 235.048 16.724V7.454H236.704ZM247.347 17.21H241.875L240.867 20H239.139L243.675 7.526H245.565L250.083 20H248.355L247.347 17.21ZM246.879 15.878L244.611 9.542L242.343 15.878H246.879ZM258.864 20L253.698 14.276V20H252.06V7.454H253.698V13.268L258.882 7.454H260.952L255.264 13.736L261.006 20H258.864ZM264.473 8.786V12.98H269.045V14.33H264.473V18.65H269.585V20H262.835V7.436H269.585V8.786H264.473ZM286.529 7.454V20H284.891V14.312H278.501V20H276.863V7.454H278.501V12.962H284.891V7.454H286.529ZM290.963 8.786V12.98H295.535V14.33H290.963V18.65H296.075V20H289.325V7.436H296.075V8.786H290.963ZM308.418 20H306.78L300.192 10.01V20H298.554V7.436H300.192L306.78 17.408V7.436H308.418V20ZM321.074 20H319.436L312.848 10.01V20H311.21V7.436H312.848L319.436 17.408V7.436H321.074V20ZM332.65 7.454L328.564 15.266V20H326.926V15.266L322.822 7.454H324.64L327.736 13.808L330.832 7.454H332.65ZM236.704 34.454V43.724C236.704 44.756 236.386 45.584 235.75 46.208C235.114 46.82 234.274 47.126 233.23 47.126C232.174 47.126 231.328 46.814 230.692 46.19C230.056 45.554 229.738 44.69 229.738 43.598H231.376C231.388 44.21 231.544 44.708 231.844 45.092C232.156 45.476 232.618 45.668 233.23 45.668C233.842 45.668 234.298 45.488 234.598 45.128C234.898 44.756 235.048 44.288 235.048 43.724V34.454H236.704ZM247.347 44.21H241.875L240.867 47H239.139L243.675 34.526H245.565L250.083 47H248.355L247.347 44.21ZM246.879 42.878L244.611 36.542L242.343 42.878H246.879ZM258.864 47L253.698 41.276V47H252.06V34.454H253.698V40.268L258.882 34.454H260.952L255.264 40.736L261.006 47H258.864ZM264.473 35.786V39.98H269.045V41.33H264.473V45.65H269.585V47H262.835V34.436H269.585V35.786H264.473ZM281.064 35.462C282.396 35.462 283.554 35.714 284.538 36.218C285.522 36.722 286.278 37.43 286.806 38.342C287.334 39.242 287.598 40.286 287.598 41.474C287.598 42.422 287.442 43.334 287.13 44.21C286.818 45.074 286.362 45.776 285.762 46.316C285.174 46.856 284.484 47.126 283.692 47.126C283.092 47.126 282.63 46.976 282.306 46.676C281.982 46.376 281.796 45.968 281.748 45.452C281.376 45.968 280.902 46.376 280.326 46.676C279.762 46.976 279.162 47.126 278.526 47.126C277.614 47.126 276.894 46.85 276.366 46.298C275.85 45.734 275.592 44.978 275.592 44.03C275.592 43.13 275.778 42.29 276.15 41.51C276.534 40.73 277.062 40.106 277.734 39.638C278.406 39.158 279.168 38.918 280.02 38.918C281.16 38.918 281.928 39.35 282.324 40.214L282.522 39.098H283.944L283.044 44.3C283.008 44.528 282.99 44.738 282.99 44.93C282.99 45.65 283.308 46.01 283.944 46.01C284.424 46.01 284.838 45.782 285.186 45.326C285.546 44.87 285.816 44.3 285.996 43.616C286.176 42.92 286.266 42.236 286.266 41.564C286.266 39.992 285.792 38.774 284.844 37.91C283.908 37.046 282.582 36.614 280.866 36.614C279.438 36.614 278.148 36.962 276.996 37.658C275.856 38.342 274.962 39.284 274.314 40.484C273.666 41.684 273.342 43.01 273.342 44.462C273.33 46.046 273.804 47.264 274.764 48.116C275.724 48.98 277.056 49.412 278.76 49.412C279.888 49.412 280.884 49.208 281.748 48.8L281.964 49.916C280.896 50.36 279.72 50.582 278.436 50.582C277.152 50.582 276.018 50.336 275.034 49.844C274.062 49.364 273.306 48.668 272.766 47.756C272.238 46.856 271.974 45.806 271.974 44.606C271.974 42.914 272.364 41.372 273.144 39.98C273.924 38.576 275.004 37.472 276.384 36.668C277.776 35.864 279.336 35.462 281.064 35.462ZM279.012 45.848C279.552 45.848 280.05 45.692 280.506 45.38C280.962 45.056 281.322 44.624 281.586 44.084C281.85 43.532 281.982 42.932 281.982 42.284C281.982 41.66 281.808 41.156 281.46 40.772C281.124 40.376 280.644 40.178 280.02 40.178C279.444 40.178 278.934 40.352 278.49 40.7C278.058 41.036 277.722 41.486 277.482 42.05C277.242 42.602 277.122 43.178 277.122 43.778C277.122 44.414 277.284 44.918 277.608 45.29C277.932 45.662 278.4 45.848 279.012 45.848ZM296.574 40.538C297.03 40.61 297.444 40.796 297.816 41.096C298.2 41.396 298.5 41.768 298.716 42.212C298.944 42.656 299.058 43.13 299.058 43.634C299.058 44.27 298.896 44.846 298.572 45.362C298.248 45.866 297.774 46.268 297.15 46.568C296.538 46.856 295.812 47 294.972 47H290.292V34.454H294.792C295.644 34.454 296.37 34.598 296.97 34.886C297.57 35.162 298.02 35.54 298.32 36.02C298.62 36.5 298.77 37.04 298.77 37.64C298.77 38.384 298.566 39.002 298.158 39.494C297.762 39.974 297.234 40.322 296.574 40.538ZM291.93 39.872H294.684C295.452 39.872 296.046 39.692 296.466 39.332C296.886 38.972 297.096 38.474 297.096 37.838C297.096 37.202 296.886 36.704 296.466 36.344C296.046 35.984 295.44 35.804 294.648 35.804H291.93V39.872ZM294.828 45.65C295.644 45.65 296.28 45.458 296.736 45.074C297.192 44.69 297.42 44.156 297.42 43.472C297.42 42.776 297.18 42.23 296.7 41.834C296.22 41.426 295.578 41.222 294.774 41.222H291.93V45.65H294.828ZM307.937 47L304.949 41.87H302.969V47H301.331V34.454H305.381C306.329 34.454 307.127 34.616 307.775 34.94C308.435 35.264 308.927 35.702 309.251 36.254C309.575 36.806 309.737 37.436 309.737 38.144C309.737 39.008 309.485 39.77 308.981 40.43C308.489 41.09 307.745 41.528 306.749 41.744L309.899 47H307.937ZM302.969 40.556H305.381C306.269 40.556 306.935 40.34 307.379 39.908C307.823 39.464 308.045 38.876 308.045 38.144C308.045 37.4 307.823 36.824 307.379 36.416C306.947 36.008 306.281 35.804 305.381 35.804H302.969V40.556ZM313.92 34.454V47H312.282V34.454H313.92ZM326.216 38.09C325.868 37.358 325.364 36.794 324.704 36.398C324.044 35.99 323.276 35.786 322.4 35.786C321.524 35.786 320.732 35.99 320.024 36.398C319.328 36.794 318.776 37.37 318.368 38.126C317.972 38.87 317.774 39.734 317.774 40.718C317.774 41.702 317.972 42.566 318.368 43.31C318.776 44.054 319.328 44.63 320.024 45.038C320.732 45.434 321.524 45.632 322.4 45.632C323.624 45.632 324.632 45.266 325.424 44.534C326.216 43.802 326.678 42.812 326.81 41.564H321.806V40.232H328.556V41.492C328.46 42.524 328.136 43.472 327.584 44.336C327.032 45.188 326.306 45.866 325.406 46.37C324.506 46.862 323.504 47.108 322.4 47.108C321.236 47.108 320.174 46.838 319.214 46.298C318.254 45.746 317.492 44.984 316.928 44.012C316.376 43.04 316.1 41.942 316.1 40.718C316.1 39.494 316.376 38.396 316.928 37.424C317.492 36.44 318.254 35.678 319.214 35.138C320.174 34.586 321.236 34.31 322.4 34.31C323.732 34.31 324.908 34.64 325.928 35.3C326.96 35.96 327.71 36.89 328.178 38.09H326.216ZM340.388 34.454V47H338.75V41.312H332.36V47H330.722V34.454H332.36V39.962H338.75V34.454H340.388ZM350.907 34.454V35.786H347.487V47H345.849V35.786H342.411V34.454H350.907ZM354.561 45.668H358.953V47H352.923V34.454H354.561V45.668ZM362.331 34.454V47H360.693V34.454H362.331ZM374.626 38.09C374.278 37.358 373.774 36.794 373.114 36.398C372.454 35.99 371.686 35.786 370.81 35.786C369.934 35.786 369.142 35.99 368.434 36.398C367.738 36.794 367.186 37.37 366.778 38.126C366.382 38.87 366.184 39.734 366.184 40.718C366.184 41.702 366.382 42.566 366.778 43.31C367.186 44.054 367.738 44.63 368.434 45.038C369.142 45.434 369.934 45.632 370.81 45.632C372.034 45.632 373.042 45.266 373.834 44.534C374.626 43.802 375.088 42.812 375.22 41.564H370.216V40.232H376.966V41.492C376.87 42.524 376.546 43.472 375.994 44.336C375.442 45.188 374.716 45.866 373.816 46.37C372.916 46.862 371.914 47.108 370.81 47.108C369.646 47.108 368.584 46.838 367.624 46.298C366.664 45.746 365.902 44.984 365.338 44.012C364.786 43.04 364.51 41.942 364.51 40.718C364.51 39.494 364.786 38.396 365.338 37.424C365.902 36.44 366.664 35.678 367.624 35.138C368.584 34.586 369.646 34.31 370.81 34.31C372.142 34.31 373.318 34.64 374.338 35.3C375.37 35.96 376.12 36.89 376.588 38.09H374.626ZM388.798 34.454V47H387.16V41.312H380.77V47H379.132V34.454H380.77V39.962H387.16V34.454H388.798ZM399.317 34.454V35.786H395.897V47H394.259V35.786H390.821V34.454H399.317ZM405.311 47.126C404.483 47.126 403.739 46.982 403.079 46.694C402.431 46.394 401.921 45.986 401.549 45.47C401.177 44.942 400.985 44.336 400.973 43.652H402.719C402.779 44.24 403.019 44.738 403.439 45.146C403.871 45.542 404.495 45.74 405.311 45.74C406.091 45.74 406.703 45.548 407.147 45.164C407.603 44.768 407.831 44.264 407.831 43.652C407.831 43.172 407.699 42.782 407.435 42.482C407.171 42.182 406.841 41.954 406.445 41.798C406.049 41.642 405.515 41.474 404.843 41.294C404.015 41.078 403.349 40.862 402.845 40.646C402.353 40.43 401.927 40.094 401.567 39.638C401.219 39.17 401.045 38.546 401.045 37.766C401.045 37.082 401.219 36.476 401.567 35.948C401.915 35.42 402.401 35.012 403.025 34.724C403.661 34.436 404.387 34.292 405.203 34.292C406.379 34.292 407.339 34.586 408.083 35.174C408.839 35.762 409.265 36.542 409.361 37.514H407.561C407.501 37.034 407.249 36.614 406.805 36.254C406.361 35.882 405.773 35.696 405.041 35.696C404.357 35.696 403.799 35.876 403.367 36.236C402.935 36.584 402.719 37.076 402.719 37.712C402.719 38.168 402.845 38.54 403.097 38.828C403.361 39.116 403.679 39.338 404.051 39.494C404.435 39.638 404.969 39.806 405.653 39.998C406.481 40.226 407.147 40.454 407.651 40.682C408.155 40.898 408.587 41.24 408.947 41.708C409.307 42.164 409.487 42.788 409.487 43.58C409.487 44.192 409.325 44.768 409.001 45.308C408.677 45.848 408.197 46.286 407.561 46.622C406.925 46.958 406.175 47.126 405.311 47.126ZM417.586 47.126C416.422 47.126 415.36 46.856 414.4 46.316C413.44 45.764 412.678 45.002 412.114 44.03C411.562 43.046 411.286 41.942 411.286 40.718C411.286 39.494 411.562 38.396 412.114 37.424C412.678 36.44 413.44 35.678 414.4 35.138C415.36 34.586 416.422 34.31 417.586 34.31C418.762 34.31 419.83 34.586 420.79 35.138C421.75 35.678 422.506 36.434 423.058 37.406C423.61 38.378 423.886 39.482 423.886 40.718C423.886 41.954 423.61 43.058 423.058 44.03C422.506 45.002 421.75 45.764 420.79 46.316C419.83 46.856 418.762 47.126 417.586 47.126ZM417.586 45.704C418.462 45.704 419.248 45.5 419.944 45.092C420.652 44.684 421.204 44.102 421.6 43.346C422.008 42.59 422.212 41.714 422.212 40.718C422.212 39.71 422.008 38.834 421.6 38.09C421.204 37.334 420.658 36.752 419.962 36.344C419.266 35.936 418.474 35.732 417.586 35.732C416.698 35.732 415.906 35.936 415.21 36.344C414.514 36.752 413.962 37.334 413.554 38.09C413.158 38.834 412.96 39.71 412.96 40.718C412.96 41.714 413.158 42.59 413.554 43.346C413.962 44.102 414.514 44.684 415.21 45.092C415.918 45.5 416.71 45.704 417.586 45.704ZM433.14 34.454V35.786H427.686V40.016H432.114V41.348H427.686V47H426.048V34.454H433.14ZM442.21 34.454V35.786H436.756V40.016H441.184V41.348H436.756V47H435.118V34.454H442.21ZM445.827 34.454V47H444.189V34.454H445.827ZM448.006 40.718C448.006 39.494 448.282 38.396 448.834 37.424C449.386 36.44 450.136 35.672 451.084 35.12C452.044 34.568 453.106 34.292 454.27 34.292C455.638 34.292 456.832 34.622 457.852 35.282C458.872 35.942 459.616 36.878 460.084 38.09H458.122C457.774 37.334 457.27 36.752 456.61 36.344C455.962 35.936 455.182 35.732 454.27 35.732C453.394 35.732 452.608 35.936 451.912 36.344C451.216 36.752 450.67 37.334 450.274 38.09C449.878 38.834 449.68 39.71 449.68 40.718C449.68 41.714 449.878 42.59 450.274 43.346C450.67 44.09 451.216 44.666 451.912 45.074C452.608 45.482 453.394 45.686 454.27 45.686C455.182 45.686 455.962 45.488 456.61 45.092C457.27 44.684 457.774 44.102 458.122 43.346H460.084C459.616 44.546 458.872 45.476 457.852 46.136C456.832 46.784 455.638 47.108 454.27 47.108C453.106 47.108 452.044 46.838 451.084 46.298C450.136 45.746 449.386 44.984 448.834 44.012C448.282 43.04 448.006 41.942 448.006 40.718ZM464.161 34.454V47H462.523V34.454H464.161ZM474.368 44.21H468.896L467.888 47H466.16L470.696 34.526H472.586L477.104 47H475.376L474.368 44.21ZM473.9 42.878L471.632 36.542L469.364 42.878H473.9ZM480.719 45.668H485.111V47H479.081V34.454H480.719V45.668ZM487.373 47.108C487.061 47.108 486.797 47 486.581 46.784C486.365 46.568 486.257 46.304 486.257 45.992C486.257 45.68 486.365 45.416 486.581 45.2C486.797 44.984 487.061 44.876 487.373 44.876C487.673 44.876 487.925 44.984 488.129 45.2C488.345 45.416 488.453 45.68 488.453 45.992C488.453 46.304 488.345 46.568 488.129 46.784C487.925 47 487.673 47.108 487.373 47.108ZM490.018 40.718C490.018 39.494 490.294 38.396 490.846 37.424C491.398 36.44 492.148 35.672 493.096 35.12C494.056 34.568 495.118 34.292 496.282 34.292C497.65 34.292 498.844 34.622 499.864 35.282C500.884 35.942 501.628 36.878 502.096 38.09H500.134C499.786 37.334 499.282 36.752 498.622 36.344C497.974 35.936 497.194 35.732 496.282 35.732C495.406 35.732 494.62 35.936 493.924 36.344C493.228 36.752 492.682 37.334 492.286 38.09C491.89 38.834 491.692 39.71 491.692 40.718C491.692 41.714 491.89 42.59 492.286 43.346C492.682 44.09 493.228 44.666 493.924 45.074C494.62 45.482 495.406 45.686 496.282 45.686C497.194 45.686 497.974 45.488 498.622 45.092C499.282 44.684 499.786 44.102 500.134 43.346H502.096C501.628 44.546 500.884 45.476 499.864 46.136C498.844 46.784 497.65 47.108 496.282 47.108C495.118 47.108 494.056 46.838 493.096 46.298C492.148 45.746 491.398 44.984 490.846 44.012C490.294 43.04 490.018 41.942 490.018 40.718ZM510.222 47.126C509.058 47.126 507.996 46.856 507.036 46.316C506.076 45.764 505.314 45.002 504.75 44.03C504.198 43.046 503.922 41.942 503.922 40.718C503.922 39.494 504.198 38.396 504.75 37.424C505.314 36.44 506.076 35.678 507.036 35.138C507.996 34.586 509.058 34.31 510.222 34.31C511.398 34.31 512.466 34.586 513.426 35.138C514.386 35.678 515.142 36.434 515.694 37.406C516.246 38.378 516.522 39.482 516.522 40.718C516.522 41.954 516.246 43.058 515.694 44.03C515.142 45.002 514.386 45.764 513.426 46.316C512.466 46.856 511.398 47.126 510.222 47.126ZM510.222 45.704C511.098 45.704 511.884 45.5 512.58 45.092C513.288 44.684 513.84 44.102 514.236 43.346C514.644 42.59 514.848 41.714 514.848 40.718C514.848 39.71 514.644 38.834 514.236 38.09C513.84 37.334 513.294 36.752 512.598 36.344C511.902 35.936 511.11 35.732 510.222 35.732C509.334 35.732 508.542 35.936 507.846 36.344C507.15 36.752 506.598 37.334 506.19 38.09C505.794 38.834 505.596 39.71 505.596 40.718C505.596 41.714 505.794 42.59 506.19 43.346C506.598 44.102 507.15 44.684 507.846 45.092C508.554 45.5 509.346 45.704 510.222 45.704ZM531.411 34.544V47H529.773V37.712L525.633 47H524.481L520.323 37.694V47H518.685V34.544H520.449L525.057 44.84L529.665 34.544H531.411Z" fill="white"/>
</svg>
