<svg width="166" height="11" viewBox="0 0 166 11" fill="none" xmlns="http://www.w3.org/2000/svg">
<path opacity="0.5" d="M5.38756 0.847999C6.2629 0.847999 7.0429 1.04733 7.72756 1.446C8.41223 1.836 8.9409 2.382 9.31356 3.084C9.6949 3.77733 9.88556 4.57033 9.88556 5.463C9.88556 6.35567 9.6949 7.153 9.31356 7.855C8.9409 8.54833 8.41223 9.09433 7.72756 9.493C7.0429 9.883 6.2629 10.078 5.38756 10.078C4.50356 10.078 3.71923 9.883 3.03456 9.493C2.3499 9.09433 1.8169 8.54833 1.43556 7.855C1.05423 7.153 0.863563 6.35567 0.863563 5.463C0.863563 4.57033 1.05423 3.77733 1.43556 3.084C1.8169 2.382 2.3499 1.836 3.03456 1.446C3.71923 1.04733 4.50356 0.847999 5.38756 0.847999ZM5.38756 1.368C4.58156 1.368 3.87956 1.54133 3.28156 1.888C2.68356 2.226 2.22423 2.70267 1.90356 3.318C1.5829 3.93333 1.42256 4.64833 1.42256 5.463C1.42256 6.269 1.5829 6.984 1.90356 7.608C2.22423 8.22333 2.68356 8.70433 3.28156 9.051C3.87956 9.39767 4.58156 9.571 5.38756 9.571C6.1849 9.571 6.87823 9.39767 7.46756 9.051C8.06556 8.70433 8.5249 8.22333 8.84556 7.608C9.16623 6.984 9.32656 6.269 9.32656 5.463C9.32656 4.64833 9.16623 3.93333 8.84556 3.318C8.5249 2.70267 8.06556 2.226 7.46756 1.888C6.87823 1.54133 6.1849 1.368 5.38756 1.368ZM5.36156 2.447C4.84156 2.447 4.3649 2.56833 3.93156 2.811C3.5069 3.05367 3.1689 3.40467 2.91756 3.864C2.66623 4.31467 2.54056 4.84333 2.54056 5.45C2.54056 6.05667 2.66623 6.58967 2.91756 7.049C3.1689 7.49967 3.5069 7.85067 3.93156 8.102C4.3649 8.34467 4.84156 8.466 5.36156 8.466C6.01156 8.466 6.5749 8.29267 7.05156 7.946C7.52823 7.59067 7.85323 7.11833 8.02656 6.529H6.93456C6.67456 7.24833 6.15023 7.608 5.36156 7.608C4.84156 7.608 4.4169 7.42167 4.08756 7.049C3.75823 6.67633 3.59356 6.14767 3.59356 5.463C3.59356 4.76967 3.75823 4.23667 4.08756 3.864C4.4169 3.49133 4.84156 3.305 5.36156 3.305C5.7429 3.305 6.07223 3.40033 6.34956 3.591C6.6269 3.773 6.8219 4.03733 6.93456 4.384H8.02656C7.8619 3.76867 7.54123 3.292 7.06456 2.954C6.5879 2.616 6.02023 2.447 5.36156 2.447ZM18.1171 9.051C19.2178 8.167 20.0801 7.44333 20.7041 6.88C21.3281 6.308 21.8524 5.71433 22.2771 5.099C22.7104 4.475 22.9271 3.864 22.9271 3.266C22.9271 2.70267 22.7884 2.26067 22.5111 1.94C22.2424 1.61067 21.8048 1.446 21.1981 1.446C20.6088 1.446 20.1494 1.63233 19.8201 2.005C19.4994 2.369 19.3261 2.85867 19.3001 3.474H18.1561C18.1908 2.50333 18.4854 1.75367 19.0401 1.225C19.5948 0.696333 20.3098 0.431999 21.1851 0.431999C22.0778 0.431999 22.7841 0.678999 23.3041 1.173C23.8328 1.667 24.0971 2.34733 24.0971 3.214C24.0971 3.93333 23.8804 4.63533 23.4471 5.32C23.0224 5.996 22.5371 6.594 21.9911 7.114C21.4451 7.62533 20.7474 8.22333 19.8981 8.908H24.3701V9.896H18.1171V9.051ZM25.7376 5.203C25.7376 3.71233 25.9803 2.551 26.4656 1.719C26.951 0.878333 27.8003 0.458 29.0136 0.458C30.2183 0.458 31.0633 0.878333 31.5486 1.719C32.034 2.551 32.2766 3.71233 32.2766 5.203C32.2766 6.71967 32.034 7.89833 31.5486 8.739C31.0633 9.57967 30.2183 10 29.0136 10C27.8003 10 26.951 9.57967 26.4656 8.739C25.9803 7.89833 25.7376 6.71967 25.7376 5.203ZM31.1066 5.203C31.1066 4.449 31.0546 3.812 30.9506 3.292C30.8553 2.76333 30.6516 2.33867 30.3396 2.018C30.0363 1.69733 29.5943 1.537 29.0136 1.537C28.4243 1.537 27.9736 1.69733 27.6616 2.018C27.3583 2.33867 27.1546 2.76333 27.0506 3.292C26.9553 3.812 26.9076 4.449 26.9076 5.203C26.9076 5.983 26.9553 6.63733 27.0506 7.166C27.1546 7.69467 27.3583 8.11933 27.6616 8.44C27.9736 8.76067 28.4243 8.921 29.0136 8.921C29.5943 8.921 30.0363 8.76067 30.3396 8.44C30.6516 8.11933 30.8553 7.69467 30.9506 7.166C31.0546 6.63733 31.1066 5.983 31.1066 5.203ZM33.7577 9.051C34.8584 8.167 35.7207 7.44333 36.3447 6.88C36.9687 6.308 37.4931 5.71433 37.9177 5.099C38.3511 4.475 38.5677 3.864 38.5677 3.266C38.5677 2.70267 38.4291 2.26067 38.1517 1.94C37.8831 1.61067 37.4454 1.446 36.8387 1.446C36.2494 1.446 35.7901 1.63233 35.4607 2.005C35.1401 2.369 34.9667 2.85867 34.9407 3.474H33.7967C33.8314 2.50333 34.1261 1.75367 34.6807 1.225C35.2354 0.696333 35.9504 0.431999 36.8257 0.431999C37.7184 0.431999 38.4247 0.678999 38.9447 1.173C39.4734 1.667 39.7377 2.34733 39.7377 3.214C39.7377 3.93333 39.5211 4.63533 39.0877 5.32C38.6631 5.996 38.1777 6.594 37.6317 7.114C37.0857 7.62533 36.3881 8.22333 35.5387 8.908H40.0107V9.896H33.7577V9.051ZM41.3783 5.203C41.3783 3.71233 41.6209 2.551 42.1063 1.719C42.5916 0.878333 43.4409 0.458 44.6543 0.458C45.8589 0.458 46.7039 0.878333 47.1893 1.719C47.6746 2.551 47.9173 3.71233 47.9173 5.203C47.9173 6.71967 47.6746 7.89833 47.1893 8.739C46.7039 9.57967 45.8589 10 44.6543 10C43.4409 10 42.5916 9.57967 42.1063 8.739C41.6209 7.89833 41.3783 6.71967 41.3783 5.203ZM46.7473 5.203C46.7473 4.449 46.6953 3.812 46.5913 3.292C46.4959 2.76333 46.2923 2.33867 45.9803 2.018C45.6769 1.69733 45.2349 1.537 44.6543 1.537C44.0649 1.537 43.6143 1.69733 43.3023 2.018C42.9989 2.33867 42.7953 2.76333 42.6913 3.292C42.5959 3.812 42.5483 4.449 42.5483 5.203C42.5483 5.983 42.5959 6.63733 42.6913 7.166C42.7953 7.69467 42.9989 8.11933 43.3023 8.44C43.6143 8.76067 44.0649 8.921 44.6543 8.921C45.2349 8.921 45.6769 8.76067 45.9803 8.44C46.2923 8.11933 46.4959 7.69467 46.5913 7.166C46.6953 6.63733 46.7473 5.983 46.7473 5.203ZM56.0232 0.939C57.0112 0.939 57.8648 1.12533 58.5842 1.498C59.3122 1.862 59.8668 2.38633 60.2482 3.071C60.6382 3.75567 60.8332 4.56167 60.8332 5.489C60.8332 6.41633 60.6382 7.22233 60.2482 7.907C59.8668 8.583 59.3122 9.103 58.5842 9.467C57.8648 9.82233 57.0112 10 56.0232 10H53.2022V0.939H56.0232ZM56.0232 9.025C57.1932 9.025 58.0858 8.71733 58.7012 8.102C59.3165 7.478 59.6242 6.607 59.6242 5.489C59.6242 4.36233 59.3122 3.48267 58.6882 2.85C58.0728 2.21733 57.1845 1.901 56.0232 1.901H54.3852V9.025H56.0232ZM66.9566 0.939V7.634C66.9566 8.37933 66.7269 8.97733 66.2676 9.428C65.8082 9.87 65.2016 10.091 64.4476 10.091C63.6849 10.091 63.0739 9.86567 62.6146 9.415C62.1552 8.95567 61.9256 8.33167 61.9256 7.543H63.1086C63.1172 7.985 63.2299 8.34467 63.4466 8.622C63.6719 8.89933 64.0056 9.038 64.4476 9.038C64.8896 9.038 65.2189 8.908 65.4356 8.648C65.6522 8.37933 65.7606 8.04133 65.7606 7.634V0.939H66.9566ZM77.29 5.333C77.6193 5.385 77.9183 5.51933 78.187 5.736C78.4643 5.95267 78.681 6.22133 78.837 6.542C79.0016 6.86267 79.084 7.205 79.084 7.569C79.084 8.02833 78.967 8.44433 78.733 8.817C78.499 9.181 78.1566 9.47133 77.706 9.688C77.264 9.896 76.7396 10 76.133 10H72.753V0.939H76.003C76.6183 0.939 77.1426 1.043 77.576 1.251C78.0093 1.45033 78.3343 1.72333 78.551 2.07C78.7676 2.41667 78.876 2.80667 78.876 3.24C78.876 3.77733 78.7286 4.22367 78.434 4.579C78.148 4.92567 77.7666 5.177 77.29 5.333ZM73.936 4.852H75.925C76.4796 4.852 76.9086 4.722 77.212 4.462C77.5153 4.202 77.667 3.84233 77.667 3.383C77.667 2.92367 77.5153 2.564 77.212 2.304C76.9086 2.044 76.471 1.914 75.899 1.914H73.936V4.852ZM76.029 9.025C76.6183 9.025 77.0776 8.88633 77.407 8.609C77.7363 8.33167 77.901 7.946 77.901 7.452C77.901 6.94933 77.7276 6.555 77.381 6.269C77.0343 5.97433 76.5706 5.827 75.99 5.827H73.936V9.025H76.029ZM85.4966 10L83.3386 6.295H81.9086V10H80.7256V0.939H83.6506C84.3353 0.939 84.9116 1.056 85.3796 1.29C85.8563 1.524 86.2116 1.84033 86.4456 2.239C86.6796 2.63767 86.7966 3.09267 86.7966 3.604C86.7966 4.228 86.6146 4.77833 86.2506 5.255C85.8953 5.73167 85.3579 6.048 84.6386 6.204L86.9136 10H85.4966ZM81.9086 5.346H83.6506C84.2919 5.346 84.7729 5.19 85.0936 4.878C85.4143 4.55733 85.5746 4.13267 85.5746 3.604C85.5746 3.06667 85.4143 2.65067 85.0936 2.356C84.7816 2.06133 84.3006 1.914 83.6506 1.914H81.9086V5.346ZM89.8178 0.939V10H88.6348V0.939H89.8178ZM98.698 3.565C98.4467 3.03633 98.0827 2.629 97.606 2.343C97.1293 2.04833 96.5747 1.901 95.942 1.901C95.3093 1.901 94.7373 2.04833 94.226 2.343C93.7233 2.629 93.3247 3.045 93.03 3.591C92.744 4.12833 92.601 4.75233 92.601 5.463C92.601 6.17367 92.744 6.79767 93.03 7.335C93.3247 7.87233 93.7233 8.28833 94.226 8.583C94.7373 8.869 95.3093 9.012 95.942 9.012C96.826 9.012 97.554 8.74767 98.126 8.219C98.698 7.69033 99.0317 6.97533 99.127 6.074H95.513V5.112H100.388V6.022C100.319 6.76733 100.085 7.452 99.686 8.076C99.2873 8.69133 98.763 9.181 98.113 9.545C97.463 9.90033 96.7393 10.078 95.942 10.078C95.1013 10.078 94.3343 9.883 93.641 9.493C92.9477 9.09433 92.3973 8.544 91.99 7.842C91.5913 7.14 91.392 6.347 91.392 5.463C91.392 4.579 91.5913 3.786 91.99 3.084C92.3973 2.37333 92.9477 1.823 93.641 1.433C94.3343 1.03433 95.1013 0.834999 95.942 0.834999C96.904 0.834999 97.7533 1.07333 98.49 1.55C99.2353 2.02667 99.777 2.69833 100.115 3.565H98.698ZM108.933 0.939V10H107.75V5.892H103.135V10H101.952V0.939H103.135V4.917H107.75V0.939H108.933ZM116.53 0.939V1.901H114.06V10H112.877V1.901H110.394V0.939H116.53ZM122.635 9.038H125.807V10H121.452V0.939H122.635V9.038ZM128.247 0.939V10H127.064V0.939H128.247ZM137.127 3.565C136.875 3.03633 136.511 2.629 136.035 2.343C135.558 2.04833 135.003 1.901 134.371 1.901C133.738 1.901 133.166 2.04833 132.655 2.343C132.152 2.629 131.753 3.045 131.459 3.591C131.173 4.12833 131.03 4.75233 131.03 5.463C131.03 6.17367 131.173 6.79767 131.459 7.335C131.753 7.87233 132.152 8.28833 132.655 8.583C133.166 8.869 133.738 9.012 134.371 9.012C135.255 9.012 135.983 8.74767 136.555 8.219C137.127 7.69033 137.46 6.97533 137.556 6.074H133.942V5.112H138.817V6.022C138.747 6.76733 138.513 7.452 138.115 8.076C137.716 8.69133 137.192 9.181 136.542 9.545C135.892 9.90033 135.168 10.078 134.371 10.078C133.53 10.078 132.763 9.883 132.07 9.493C131.376 9.09433 130.826 8.544 130.419 7.842C130.02 7.14 129.821 6.347 129.821 5.463C129.821 4.579 130.02 3.786 130.419 3.084C130.826 2.37333 131.376 1.823 132.07 1.433C132.763 1.03433 133.53 0.834999 134.371 0.834999C135.333 0.834999 136.182 1.07333 136.919 1.55C137.664 2.02667 138.206 2.69833 138.544 3.565H137.127ZM147.362 0.939V10H146.179V5.892H141.564V10H140.381V0.939H141.564V4.917H146.179V0.939H147.362ZM154.959 0.939V1.901H152.489V10H151.306V1.901H148.823V0.939H154.959ZM159.288 10.091C158.69 10.091 158.153 9.987 157.676 9.779C157.208 9.56233 156.84 9.26767 156.571 8.895C156.302 8.51367 156.164 8.076 156.155 7.582H157.416C157.459 8.00667 157.633 8.36633 157.936 8.661C158.248 8.947 158.699 9.09 159.288 9.09C159.851 9.09 160.293 8.95133 160.614 8.674C160.943 8.388 161.108 8.024 161.108 7.582C161.108 7.23533 161.013 6.95367 160.822 6.737C160.631 6.52033 160.393 6.35567 160.107 6.243C159.821 6.13033 159.435 6.009 158.95 5.879C158.352 5.723 157.871 5.567 157.507 5.411C157.152 5.255 156.844 5.01233 156.584 4.683C156.333 4.345 156.207 3.89433 156.207 3.331C156.207 2.837 156.333 2.39933 156.584 2.018C156.835 1.63667 157.186 1.342 157.637 1.134C158.096 0.926 158.621 0.822 159.21 0.822C160.059 0.822 160.753 1.03433 161.29 1.459C161.836 1.88367 162.144 2.447 162.213 3.149H160.913C160.87 2.80233 160.688 2.499 160.367 2.239C160.046 1.97033 159.622 1.836 159.093 1.836C158.599 1.836 158.196 1.966 157.884 2.226C157.572 2.47733 157.416 2.83267 157.416 3.292C157.416 3.62133 157.507 3.89 157.689 4.098C157.88 4.306 158.109 4.46633 158.378 4.579C158.655 4.683 159.041 4.80433 159.535 4.943C160.133 5.10767 160.614 5.27233 160.978 5.437C161.342 5.593 161.654 5.84 161.914 6.178C162.174 6.50733 162.304 6.958 162.304 7.53C162.304 7.972 162.187 8.388 161.953 8.778C161.719 9.168 161.372 9.48433 160.913 9.727C160.454 9.96967 159.912 10.091 159.288 10.091ZM164.422 10.078C164.197 10.078 164.006 10 163.85 9.844C163.694 9.688 163.616 9.49733 163.616 9.272C163.616 9.04667 163.694 8.856 163.85 8.7C164.006 8.544 164.197 8.466 164.422 8.466C164.639 8.466 164.821 8.544 164.968 8.7C165.124 8.856 165.202 9.04667 165.202 9.272C165.202 9.49733 165.124 9.688 164.968 9.844C164.821 10 164.639 10.078 164.422 10.078Z" fill="white"/>
</svg>
